<svg width="42" height="34" viewBox="0 0 42 34" fill="none" xmlns="http://www.w3.org/2000/svg">
<path d="M25 18.75H35.4167V14.5833H25V18.75ZM25 12.5H35.4167V8.33333H25V12.5ZM6.25 25H22.9167V23.8542C22.9167 22.2917 22.1528 21.0507 20.625 20.1312C19.0972 19.2118 17.0833 18.7514 14.5833 18.75C12.0833 18.7486 10.0694 19.209 8.54167 20.1312C7.01389 21.0535 6.25 22.2944 6.25 23.8542V25ZM14.5833 16.6667C15.7292 16.6667 16.7104 16.259 17.5271 15.4437C18.3438 14.6285 18.7514 13.6472 18.75 12.5C18.7486 11.3528 18.341 10.3722 17.5271 9.55833C16.7132 8.74444 15.732 8.33611 14.5833 8.33333C13.4347 8.33055 12.4542 8.73889 11.6417 9.55833C10.8292 10.3778 10.4208 11.3583 10.4167 12.5C10.4125 13.6417 10.8208 14.6229 11.6417 15.4437C12.4625 16.2646 13.4431 16.6722 14.5833 16.6667ZM4.16667 33.3333C3.02083 33.3333 2.04028 32.9257 1.225 32.1104C0.409723 31.2951 0.00138889 30.3139 0 29.1667V4.16667C0 3.02083 0.408334 2.04028 1.225 1.225C2.04167 0.409722 3.02222 0.00138889 4.16667 0H37.5C38.6458 0 39.6271 0.408333 40.4438 1.225C41.2604 2.04167 41.6681 3.02222 41.6667 4.16667V29.1667C41.6667 30.3125 41.259 31.2937 40.4438 32.1104C39.6285 32.9271 38.6472 33.3347 37.5 33.3333H4.16667Z" fill="black"/>
</svg>
