<svg width="41" height="44" viewBox="0 0 41 44" fill="none" xmlns="http://www.w3.org/2000/svg">
<path d="M8.75004 10.4167C8.75004 6.97917 11.5625 4.16667 15 4.16667H25.4167C28.8542 4.16667 31.6667 6.97917 31.6667 10.4167H35.8334C35.8334 4.6875 31.1459 0 25.4167 0H15C9.27087 0 4.58337 4.6875 4.58337 10.4167V22.0833H8.75004V10.4167Z" fill="black"/>
<path d="M0 19.7917L6.66667 28.5417L13.3333 19.7917H0Z" fill="black"/>
<path d="M31.6667 33.3333C31.6667 36.7708 28.8542 39.5833 25.4167 39.5833H15C11.5625 39.5833 8.75004 36.7708 8.75004 33.3333H4.58337C4.58337 39.0625 9.27087 43.75 15 43.75H25.4167C31.1459 43.75 35.8334 39.0625 35.8334 33.3333V20.8333H31.6667V33.3333Z" fill="black"/>
<path d="M27.0834 23.9583L33.75 15.2083L40.4167 23.9583H27.0834Z" fill="black"/>
</svg>
