<svg width="43" height="60" viewBox="0 0 43 60" fill="none" xmlns="http://www.w3.org/2000/svg">
<path d="M21.5 0C9.63066 0 0 8.63973 0 19.2857C0 36.4286 21.5 60 21.5 60C21.5 60 43 36.4286 43 19.2857C43 8.63973 33.3693 0 21.5 0ZM21.5 30C19.7991 30 18.1364 29.4973 16.7221 28.5555C15.3078 27.6136 14.2055 26.2749 13.5546 24.7087C12.9037 23.1425 12.7334 21.4191 13.0652 19.7564C13.3971 18.0937 14.2162 16.5664 15.4189 15.3677C16.6216 14.1689 18.154 13.3526 19.8222 13.0218C21.4905 12.6911 23.2196 12.8609 24.7911 13.5096C26.3625 14.1584 27.7057 15.257 28.6506 16.6665C29.5956 18.0761 30.1 19.7333 30.1 21.4286C30.0975 23.7011 29.1906 25.8798 27.5784 27.4867C25.9661 29.0937 23.7801 29.9975 21.5 30Z" fill="black"/>
</svg>
