<svg width="38" height="38" viewBox="0 0 38 38" fill="none" xmlns="http://www.w3.org/2000/svg">
<path d="M7.54167 16.2292C10.5417 22.125 15.375 26.9583 21.2708 29.9583L25.8542 25.375C26.4375 24.7917 27.25 24.625 27.9792 24.8542C30.3125 25.625 32.8125 26.0417 35.4167 26.0417C35.9692 26.0417 36.4991 26.2612 36.8898 26.6519C37.2805 27.0426 37.5 27.5725 37.5 28.125V35.4167C37.5 35.9692 37.2805 36.4991 36.8898 36.8898C36.4991 37.2805 35.9692 37.5 35.4167 37.5C26.0236 37.5 17.0152 33.7686 10.3733 27.1267C3.73139 20.4848 0 11.4764 0 2.08333C0 1.5308 0.219493 1.00089 0.610194 0.610194C1.00089 0.219493 1.5308 0 2.08333 0H9.375C9.92753 0 10.4574 0.219493 10.8481 0.610194C11.2388 1.00089 11.4583 1.5308 11.4583 2.08333C11.4583 4.6875 11.875 7.1875 12.6458 9.52083C12.875 10.25 12.7083 11.0625 12.125 11.6458L7.54167 16.2292Z" fill="black"/>
</svg>
