<svg width="50" height="50" viewBox="0 0 50 50" fill="none" xmlns="http://www.w3.org/2000/svg">
<path d="M21.4286 28.5714H3.57144C2.55953 28.5714 1.71192 28.2286 1.02858 27.5429C0.345251 26.8571 0.00239327 26.0095 1.23153e-05 25C-0.00236864 23.9905 0.340489 23.1429 1.02858 22.4571C1.71668 21.7714 2.5643 21.4286 3.57144 21.4286H21.4286V3.57144C21.4286 2.55953 21.7714 1.71192 22.4571 1.02858C23.1429 0.345251 23.9905 0.00239327 25 1.23153e-05C26.0095 -0.00236864 26.8583 0.340489 27.5464 1.02858C28.2345 1.71668 28.5762 2.5643 28.5714 3.57144V21.4286H46.4286C47.4405 21.4286 48.2893 21.7714 48.975 22.4571C49.6607 23.1429 50.0024 23.9905 50 25C49.9976 26.0095 49.6548 26.8583 48.9714 27.5464C48.2881 28.2345 47.4405 28.5762 46.4286 28.5714H28.5714V46.4286C28.5714 47.4405 28.2286 48.2893 27.5429 48.975C26.8571 49.6607 26.0095 50.0024 25 50C23.9905 49.9976 23.1429 49.6548 22.4571 48.9714C21.7714 48.2881 21.4286 47.4405 21.4286 46.4286V28.5714Z" fill="black"/>
</svg>
