<svg width="46" height="58" viewBox="0 0 46 58" fill="none" xmlns="http://www.w3.org/2000/svg">
<path d="M37.375 20.3V14.5C37.375 6.38 31.05 0 23 0C14.95 0 8.625 6.38 8.625 14.5V20.3C3.7375 20.3 0 24.07 0 29V49.3C0 54.23 3.7375 58 8.625 58H37.375C42.2625 58 46 54.23 46 49.3V29C46 24.07 42.2625 20.3 37.375 20.3ZM14.375 14.5C14.375 9.57 18.1125 5.8 23 5.8C27.8875 5.8 31.625 9.57 31.625 14.5V20.3H14.375V14.5ZM26.1625 39.15L25.875 39.44V43.5C25.875 45.24 24.725 46.4 23 46.4C21.275 46.4 20.125 45.24 20.125 43.5V39.44C18.4 37.7 18.1125 35.09 19.8375 33.35C21.5625 31.61 24.15 31.32 25.875 33.06C27.6 34.51 27.8875 37.41 26.1625 39.15Z" fill="black"/>
</svg>
