<svg width="50" height="30" viewBox="0 0 50 30" fill="none" xmlns="http://www.w3.org/2000/svg">
<path d="M25 9C23.1917 9 21.4575 9.63214 20.1788 10.7574C18.9002 11.8826 18.1818 13.4087 18.1818 15C18.1818 16.5913 18.9002 18.1174 20.1788 19.2426C21.4575 20.3679 23.1917 21 25 21C26.8083 21 28.5425 20.3679 29.8212 19.2426C31.0998 18.1174 31.8182 16.5913 31.8182 15C31.8182 13.4087 31.0998 11.8826 29.8212 10.7574C28.5425 9.63214 26.8083 9 25 9ZM25 25C21.9862 25 19.0958 23.9464 16.9647 22.0711C14.8336 20.1957 13.6364 17.6522 13.6364 15C13.6364 12.3478 14.8336 9.8043 16.9647 7.92893C19.0958 6.05357 21.9862 5 25 5C28.0138 5 30.9042 6.05357 33.0353 7.92893C35.1664 9.8043 36.3636 12.3478 36.3636 15C36.3636 17.6522 35.1664 20.1957 33.0353 22.0711C30.9042 23.9464 28.0138 25 25 25ZM25 0C13.6364 0 3.93182 6.22 0 15C3.93182 23.78 13.6364 30 25 30C36.3636 30 46.0682 23.78 50 15C46.0682 6.22 36.3636 0 25 0Z" fill="black"/>
</svg>
