<svg width="50" height="53" viewBox="0 0 50 53" fill="none" xmlns="http://www.w3.org/2000/svg">
<path d="M36.25 9.86047C37.5761 9.86047 38.8479 9.34103 39.7855 8.41643C40.7232 7.49184 41.25 6.23781 41.25 4.93023C41.25 3.62265 40.7232 2.36863 39.7855 1.44403C38.8479 0.519434 37.5761 0 36.25 0C34.9239 0 33.6521 0.519434 32.7145 1.44403C31.7768 2.36863 31.25 3.62265 31.25 4.93023C31.25 6.23781 31.7768 7.49184 32.7145 8.41643C33.6521 9.34103 34.9239 9.86047 36.25 9.86047ZM27.25 44.1256L29.75 33.2791L35 38.2093V53H40V34.5116L34.75 29.5814L36.25 22.186C37.963 24.1215 40.0764 25.6729 42.4481 26.7359C44.8198 27.7988 47.3948 28.3488 50 28.3488V23.4186C45.6 23.4926 41.5 21.2247 39.25 17.5023L36.75 13.5581C35.85 12.0791 34.25 11.093 32.5 11.093C31.75 11.093 31.25 11.3395 30.5 11.3395L17.5 16.7628V28.3488H22.5V19.9674L27 18.2419L23 38.2093L10.75 35.7442L9.75 40.6744L27.25 44.1256ZM5 18.4884C4.33696 18.4884 3.70107 18.2287 3.23223 17.7664C2.76339 17.3041 2.5 16.677 2.5 16.0233C2.5 15.3695 2.76339 14.7425 3.23223 14.2802C3.70107 13.8179 4.33696 13.5581 5 13.5581H12.5V18.4884H5ZM7.5 8.62791C6.83696 8.62791 6.20107 8.36819 5.73223 7.90589C5.26339 7.44359 5 6.81658 5 6.16279C5 5.509 5.26339 4.88199 5.73223 4.41969C6.20107 3.95739 6.83696 3.69767 7.5 3.69767H20V8.62791H7.5ZM2.5 28.3488C1.83696 28.3488 1.20107 28.0891 0.732233 27.6268C0.263392 27.1645 0 26.5375 0 25.8837C0 25.2299 0.263392 24.6029 0.732233 24.1406C1.20107 23.6783 1.83696 23.4186 2.5 23.4186H12.5V28.3488H2.5Z" fill="black"/>
</svg>
