<svg width="50" height="50" viewBox="0 0 50 50" fill="none" xmlns="http://www.w3.org/2000/svg">
<path fill-rule="evenodd" clip-rule="evenodd" d="M1.78571 50H50V46.4286H3.57143V0H0V48.2143L1.78571 50ZM7.14286 41.0714V12.5L8.92857 10.7143H16.0714L17.8571 12.5V41.0714L16.0714 42.8571H8.92857L7.14286 41.0714ZM14.2857 39.2857V14.2857H10.7143V39.2857H14.2857ZM35.7143 5.35714V41.0714L37.5 42.8571H44.6429L46.4286 41.0714V5.35714L44.6429 3.57143H37.5L35.7143 5.35714ZM42.8571 7.14286V39.2857H39.2857V7.14286H42.8571ZM21.4286 41.0714V19.6429L23.2143 17.8571H30.3571L32.1429 19.6429V41.0714L30.3571 42.8571H23.2143L21.4286 41.0714ZM28.5714 39.2857V21.4286H25V39.2857H28.5714Z" fill="black"/>
</svg>
