<svg width="67" height="37" viewBox="0 0 67 37" fill="none" xmlns="http://www.w3.org/2000/svg">
<path d="M18.6111 7.39999C17.5565 7.39999 16.6731 7.04479 15.9609 6.33439C15.2487 5.62399 14.8914 4.74586 14.8889 3.7C14.8864 2.65413 15.2437 1.776 15.9609 1.0656C16.678 0.3552 17.5614 0 18.6111 0H63.2778C64.3324 0 65.217 0.3552 65.9317 1.0656C66.6464 1.776 67.0025 2.65413 67 3.7C66.9975 4.74586 66.6402 5.62523 65.928 6.33809C65.2158 7.05096 64.3324 7.40492 63.2778 7.39999H18.6111ZM18.6111 22.2C17.5565 22.2 16.6731 21.8448 15.9609 21.1344C15.2487 20.424 14.8914 19.5458 14.8889 18.5C14.8864 17.4541 15.2437 16.576 15.9609 15.8656C16.678 15.1552 17.5614 14.8 18.6111 14.8H63.2778C64.3324 14.8 65.217 15.1552 65.9317 15.8656C66.6464 16.576 67.0025 17.4541 67 18.5C66.9975 19.5458 66.6402 20.4252 65.928 21.1381C65.2158 21.8509 64.3324 22.2049 63.2778 22.2H18.6111ZM18.6111 37C17.5565 37 16.6731 36.6448 15.9609 35.9344C15.2487 35.224 14.8914 34.3458 14.8889 33.3C14.8864 32.2541 15.2437 31.376 15.9609 30.6656C16.678 29.9552 17.5614 29.6 18.6111 29.6H63.2778C64.3324 29.6 65.217 29.9552 65.9317 30.6656C66.6464 31.376 67.0025 32.2541 67 33.3C66.9975 34.3458 66.6402 35.2252 65.928 35.938C65.2158 36.6509 64.3324 37.0049 63.2778 37H18.6111ZM3.72223 7.39999C2.6676 7.39999 1.7842 7.04479 1.07201 6.33439C0.359828 5.62399 0.00249432 4.74586 1.28352e-05 3.7C-0.00246865 2.65413 0.354865 1.776 1.07201 1.0656C1.78916 0.3552 2.67257 0 3.72223 0C4.7719 0 5.65655 0.3552 6.37618 1.0656C7.09581 1.776 7.4519 2.65413 7.44445 3.7C7.43701 4.74586 7.07968 5.62523 6.37245 6.33809C5.66523 7.05096 4.78183 7.40492 3.72223 7.39999ZM3.72223 22.2C2.6676 22.2 1.7842 21.8448 1.07201 21.1344C0.359828 20.424 0.00249432 19.5458 1.28352e-05 18.5C-0.00246865 17.4541 0.354865 16.576 1.07201 15.8656C1.78916 15.1552 2.67257 14.8 3.72223 14.8C4.7719 14.8 5.65655 15.1552 6.37618 15.8656C7.09581 16.576 7.4519 17.4541 7.44445 18.5C7.43701 19.5458 7.07968 20.4252 6.37245 21.1381C5.66523 21.8509 4.78183 22.2049 3.72223 22.2ZM3.72223 37C2.6676 37 1.7842 36.6448 1.07201 35.9344C0.359828 35.224 0.00249432 34.3458 1.28352e-05 33.3C-0.00246865 32.2541 0.354865 31.376 1.07201 30.6656C1.78916 29.9552 2.67257 29.6 3.72223 29.6C4.7719 29.6 5.65655 29.9552 6.37618 30.6656C7.09581 31.376 7.4519 32.2541 7.44445 33.3C7.43701 34.3458 7.07968 35.2252 6.37245 35.938C5.66523 36.6509 4.78183 37.0049 3.72223 37Z" fill="black"/>
</svg>
