<svg width="58" height="79" viewBox="0 0 58 79" fill="none" xmlns="http://www.w3.org/2000/svg">
<path d="M4 4H43.2857C46.1273 4 48.8525 5.12882 50.8619 7.13814C52.8712 9.14746 54 11.8727 54 14.7143V64.7143C54 65.6615 53.6237 66.5699 52.954 67.2397C52.2842 67.9094 51.3758 68.2857 50.4286 68.2857H39.7143" stroke="black" stroke-width="7" stroke-linecap="round" stroke-linejoin="round"/>
<path d="M29 39.7143V46.8571M4 4L31.1 9.42143C33.5286 9.90684 35.714 11.2186 37.2845 13.1335C38.855 15.0485 39.7136 17.4484 39.7143 19.925V71.0714C39.714 71.5996 39.5965 72.1212 39.3703 72.5985C39.1442 73.0758 38.815 73.497 38.4064 73.8318C37.9979 74.1665 37.5202 74.4065 37.0077 74.5344C36.4952 74.6623 35.9608 74.675 35.4429 74.5714L9.74286 69.4357C8.12301 69.1119 6.66546 68.2367 5.61836 66.9591C4.57126 65.6815 3.99935 64.0805 4 62.4286V4Z" stroke="black" stroke-width="7" stroke-linecap="round" stroke-linejoin="round"/>
</svg>
