<svg width="51" height="40" viewBox="0 0 51 40" fill="none" xmlns="http://www.w3.org/2000/svg">
<path d="M22.6108 38.9341C21.9276 39.6166 21.0012 40 20.0352 40C19.0693 40 18.1429 39.6166 17.4597 38.9341L1.0666 22.5519C0.383657 21.8692 1.44236e-06 20.9434 1.44236e-06 19.978C1.44236e-06 19.0127 0.383657 18.0869 1.0666 17.4042L17.4597 1.02193C18.1468 0.358787 19.067 -0.00815445 20.0221 0.00014014C20.9773 0.00843473 21.891 0.391302 22.5664 1.06628C23.2418 1.74126 23.625 2.65434 23.6333 3.60887C23.6416 4.5634 23.2744 5.48299 22.6108 6.1696L12.7494 16.3375L47.3571 16.3375C48.3232 16.3375 49.2498 16.7211 49.933 17.4038C50.6162 18.0865 51 19.0125 51 19.978C51 20.9435 50.6162 21.8695 49.933 22.5522C49.2498 23.235 48.3232 23.6185 47.3571 23.6185L12.7494 23.6185L22.6108 33.7864C23.2937 34.4691 23.6774 35.3949 23.6774 36.3603C23.6774 37.3256 23.2937 38.2514 22.6108 38.9341Z" fill="black"/>
</svg>
