<svg width="50" height="50" viewBox="0 0 50 50" fill="none" xmlns="http://www.w3.org/2000/svg">
<path d="M32.5 27.5053C35.7212 27.5054 38.8179 28.6457 41.1444 30.6882C43.471 32.7308 44.8477 35.5179 44.9875 38.4684L45 38.9658V41.2579C45.0004 42.4145 44.524 43.5284 43.6663 44.3764C42.8085 45.2245 41.6329 45.7439 40.375 45.8307L40 45.8421H5C3.73856 45.8425 2.52358 45.4057 1.59863 44.6193C0.673677 43.8329 0.107108 42.755 0.0125003 41.6017L0 41.2579V38.9658C0.000186106 36.0125 1.24385 33.1733 3.47165 31.0402C5.69944 28.9071 8.73938 27.6449 11.9575 27.5167L12.5 27.5053H32.5ZM47.5 25.2132C48.163 25.2132 48.7989 25.4547 49.2678 25.8845C49.7366 26.3144 50 26.8974 50 27.5053C50 28.1132 49.7366 28.6962 49.2678 29.126C48.7989 29.5559 48.163 29.7974 47.5 29.7974H45C44.337 29.7974 43.7011 29.5559 43.2322 29.126C42.7634 28.6962 42.5 28.1132 42.5 27.5053C42.5 26.8974 42.7634 26.3144 43.2322 25.8845C43.7011 25.4547 44.337 25.2132 45 25.2132H47.5ZM22.5 0C25.8152 0 28.9946 1.20745 31.3388 3.35671C33.683 5.50598 35 8.42101 35 11.4605C35 14.5001 33.683 17.4151 31.3388 19.5643C28.9946 21.7136 25.8152 22.9211 22.5 22.9211C19.1848 22.9211 16.0054 21.7136 13.6612 19.5643C11.317 17.4151 10 14.5001 10 11.4605C10 8.42101 11.317 5.50598 13.6612 3.35671C16.0054 1.20745 19.1848 0 22.5 0ZM47.5 18.3368C48.163 18.3368 48.7989 18.5783 49.2678 19.0082C49.7366 19.438 50 20.0211 50 20.629C50 21.2369 49.7366 21.8199 49.2678 22.2497C48.7989 22.6796 48.163 22.9211 47.5 22.9211H42.5C41.837 22.9211 41.2011 22.6796 40.7322 22.2497C40.2634 21.8199 40 21.2369 40 20.629C40 20.0211 40.2634 19.438 40.7322 19.0082C41.2011 18.5783 41.837 18.3368 42.5 18.3368H47.5ZM47.5 11.4605C48.1372 11.4612 48.7501 11.6849 49.2134 12.0859C49.6768 12.487 49.9556 13.0351 49.9929 13.6183C50.0303 14.2015 49.8233 14.7758 49.4143 15.2238C49.0054 15.6718 48.4252 15.9597 47.7925 16.0287L47.5 16.0447H40C39.3628 16.0441 38.7499 15.8204 38.2866 15.4193C37.8232 15.0183 37.5444 14.4702 37.5071 13.887C37.4697 13.3038 37.6767 12.7295 38.0857 12.2815C38.4946 11.8335 39.0748 11.5456 39.7075 11.4766L40 11.4605H47.5Z" fill="black"/>
</svg>
