<svg width="45" height="34" viewBox="0 0 45 34" fill="none" xmlns="http://www.w3.org/2000/svg">
<path d="M31.5 29.4667V34H0V29.4667C0 29.4667 0 20.4 15.75 20.4C31.5 20.4 31.5 29.4667 31.5 29.4667ZM23.625 7.9334C23.625 6.36434 23.1631 4.83051 22.2978 3.52588C21.4325 2.22126 20.2026 1.20442 18.7636 0.603971C17.3247 0.00351762 15.7413 -0.153588 14.2137 0.15252C12.6861 0.458629 11.2829 1.2142 10.1815 2.3237C9.0802 3.43319 8.33017 4.84677 8.02632 6.38568C7.72246 7.9246 7.87841 9.51972 8.47445 10.9693C9.07049 12.419 10.0798 13.658 11.3749 14.5297C12.6699 15.4014 14.1925 15.8667 15.75 15.8667C17.8386 15.8667 19.8416 15.0309 21.3185 13.5431C22.7953 12.0553 23.625 10.0374 23.625 7.9334ZM31.365 20.4C32.7482 21.4784 33.88 22.849 34.6808 24.4154C35.4816 25.9819 35.9319 27.7061 36 29.4667V34H45V29.4667C45 29.4667 45 21.2387 31.365 20.4ZM29.25 8.34052e-05C27.7015 -0.00717249 26.1873 0.459153 24.9075 1.33741C26.2742 3.26121 27.0091 5.56765 27.0091 7.9334C27.0091 10.2991 26.2742 12.6056 24.9075 14.5294C26.1873 15.4076 27.7015 15.874 29.25 15.8667C31.3386 15.8667 33.3416 15.0309 34.8185 13.5431C36.2953 12.0553 37.125 10.0374 37.125 7.9334C37.125 5.82935 36.2953 3.81148 34.8185 2.3237C33.3416 0.835913 31.3386 8.34052e-05 29.25 8.34052e-05Z" fill="black"/>
</svg>
